{
  "accessors": [
    {
      "bufferView": 2,
      "componentType": 5126,
      "count": 9812,
      "max": [
        10.385385513305664,
        1.2624260187149048,
        8.720719337463379
      ],
      "min": [
        -20.395565032958984,
        -0.46994438767433167,
        -10.70162296295166
      ],
      "type": "VEC3"
    },
    {
      "bufferView": 2,
      "byteOffset": 117744,
      "componentType": 5126,
      "count": 9812,
      "max": [
        1.0,
        1.0,
        0.9999770522117615
      ],
      "min": [
        -1.0,
        -0.9999831318855286,
        -1.0
      ],
      "type": "VEC3"
    },
    {
      "bufferView": 1,
      "componentType": 5126,
      "count": 9812,
      "max": [
        0.767578125,
        0.98828125
      ],
      "min": [
        0.0,
        0.0
      ],
      "type": "VEC2"
    },
    {
      "bufferView": 0,
      "componentType": 5125,
      "count": 16953,
      "type": "SCALAR"
    },
    {
      "bufferView": 2,
      "byteOffset": 235488,
      "componentType": 5126,
      "count": 130,
      "max": [
        0.9487313628196716,
        -0.0017156749963760376,
        1.1274343729019165
      ],
      "min": [
        -1.0512685775756836,
        -0.15244735777378082,
        -0.8725656270980835
      ],
      "type": "VEC3"
    },
    {
      "bufferView": 2,
      "byteOffset": 237048,
      "componentType": 5126,
      "count": 130,
      "max": [
        0.5773502588272095,
        1.0,
        0.5911191701889038
      ],
      "min": [
        -0.5773502588272095,
        0.5773502588272095,
        -0.5773502588272095
      ],
      "type": "VEC3"
    },
    {
      "bufferView": 1,
      "byteOffset": 78496,
      "componentType": 5126,
      "count": 130,
      "max": [
        0.94140625,
        0.8164064288139343
      ],
      "min": [
        0.2890625,
        0.78515625
      ],
      "type": "VEC2"
    },
    {
      "bufferView": 0,
      "byteOffset": 67812,
      "componentType": 5125,
      "count": 483,
      "type": "SCALAR"
    },
    {
      "bufferView": 2,
      "byteOffset": 238608,
      "componentType": 5126,
      "count": 834,
      "max": [
        1.0,
        0.79923415184021,
        1.2202086448669434
      ],
      "min": [
        -1.0083599090576172,
        0.0,
        -1.0
      ],
      "type": "VEC3"
    },
    {
      "bufferView": 2,
      "byteOffset": 248616,
      "componentType": 5126,
      "count": 834,
      "max": [
        1.0,
        1.0,
        1.0
      ],
      "min": [
        -1.0,
        -1.0,
        -1.0
      ],
      "type": "VEC3"
    },
    {
      "bufferView": 1,
      "byteOffset": 79536,
      "componentType": 5126,
      "count": 834,
      "max": [
        0.7148438096046448,
        0.9765626192092896
      ],
      "min": [
        0.27734363079071045,
        0.8046874403953552
      ],
      "type": "VEC2"
    },
    {
      "bufferView": 0,
      "byteOffset": 69744,
      "componentType": 5125,
      "count": 1620,
      "type": "SCALAR"
    }
  ],
  "asset": {
    "extras": {
      "author": "elhayel77 (https://sketchfab.com/elhayel77)",
      "license": "CC-BY-4.0 (http://creativecommons.org/licenses/by/4.0/)",
      "source": "https://sketchfab.com/3d-models/low-poly-race-track-d672faf6f9674ca1833921dba1984a9c",
      "title": "Low poly race track"
    },
    "generator": "Sketchfab-15.37.0",
    "version": "2.0"
  },
  "bufferViews": [
    {
      "buffer": 0,
      "byteLength": 76224,
      "name": "floatBufferViews",
      "target": 34963
    },
    {
      "buffer": 0,
      "byteLength": 86208,
      "byteOffset": 76224,
      "byteStride": 8,
      "name": "floatBufferViews",
      "target": 34962
    },
    {
      "buffer": 0,
      "byteLength": 258624,
      "byteOffset": 162432,
      "byteStride": 12,
      "name": "floatBufferViews",
      "target": 34962
    }
  ],
  "buffers": [
    {
      "byteLength": 421056,
      "uri": "scene.bin"
    }
  ],
  "images": [
    {
      "uri": "textures/Material.012_baseColor.png"
    }
  ],
  "materials": [
    {
      "doubleSided": true,
      "name": "Material.012",
      "pbrMetallicRoughness": {
        "baseColorTexture": {
          "index": 0
        },
        "metallicFactor": 0.0,
        "roughnessFactor": 0.8211145618000169
      }
    },
    {
      "doubleSided": true,
      "name": "Material.014",
      "pbrMetallicRoughness": {
        "baseColorTexture": {
          "index": 0
        },
        "metallicFactor": 0.0,
        "roughnessFactor": 0.8211145618000169
      }
    },
    {
      "doubleSided": true,
      "name": "Material.013",
      "pbrMetallicRoughness": {
        "baseColorTexture": {
          "index": 0
        },
        "metallicFactor": 0.0,
        "roughnessFactor": 0.8211145618000169
      }
    }
  ],
  "meshes": [
    {
      "name": "TRII9_Material.012_0",
      "primitives": [
        {
          "attributes": {
            "NORMAL": 1,
            "POSITION": 0,
            "TEXCOORD_0": 2
          },
          "indices": 3,
          "material": 0,
          "mode": 4
        }
      ]
    },
    {
      "name": "Plane_Material.014_0",
      "primitives": [
        {
          "attributes": {
            "NORMAL": 5,
            "POSITION": 4,
            "TEXCOORD_0": 6
          },
          "indices": 7,
          "material": 1,
          "mode": 4
        }
      ]
    },
    {
      "name": "Plane.001_Material.013_0",
      "primitives": [
        {
          "attributes": {
            "NORMAL": 9,
            "POSITION": 8,
            "TEXCOORD_0": 10
          },
          "indices": 11,
          "material": 2,
          "mode": 4
        }
      ]
    }
  ],
  "nodes": [
    {
      "children": [
        1
      ],
      "matrix": [
        1.0,
        0.0,
        0.0,
        0.0,
        0.0,
        2.220446049250313e-16,
        -1.0,
        0.0,
        0.0,
        1.0,
        2.220446049250313e-16,
        0.0,
        0.0,
        0.0,
        0.0,
        1.0
      ],
      "name": "Sketchfab_model"
    },
    {
      "children": [
        2
      ],
      "matrix": [
        1.0,
        0.0,
        0.0,
        0.0,
        0.0,
        0.0,
        1.0,
        0.0,
        0.0,
        -1.0,
        0.0,
        0.0,
        0.0,
        0.0,
        0.0,
        1.0
      ],
      "name": "Low poly race track.fbx"
    },
    {
      "children": [
        3,
        5,
        7
      ],
      "name": "RootNode"
    },
    {
      "children": [
        4
      ],
      "matrix": [
        9.623108863830566,
        0.0,
        0.0,
        0.0,
        0.0,
        9.623108863830566,
        0.0,
        0.0,
        0.0,
        0.0,
        9.623108863830566,
        0.0,
        -1.1871674060821533,
        24.36787986755371,
        30.92144012451172,
        1.0
      ],
      "name": "TRII9"
    },
    {
      "mesh": 0,
      "name": "TRII9_Material.012_0"
    },
    {
      "children": [
        6
      ],
      "matrix": [
        261.8465881347656,
        0.0,
        0.0,
        0.0,
        0.0,
        261.8465881347656,
        0.0,
        0.0,
        0.0,
        0.0,
        261.8465881347656,
        0.0,
        -5.191800117492676,
        38.889793395996094,
        7.006547927856445,
        1.0
      ],
      "name": "Plane"
    },
    {
      "mesh": 1,
      "name": "Plane_Material.014_0"
    },
    {
      "children": [
        8
      ],
      "matrix": [
        33.75236129760742,
        0.0,
        0.0,
        0.0,
        0.0,
        21.324169158935547,
        0.0,
        0.0,
        0.0,
        0.0,
        23.731264114379883,
        0.0,
        -23.00862693786621,
        23.41248893737793,
        -95.5435791015625,
        1.0
      ],
      "name": "Plane.001"
    },
    {
      "mesh": 2,
      "name": "Plane.001_Material.013_0"
    }
  ],
  "samplers": [
    {
      "magFilter": 9729,
      "minFilter": 9987,
      "wrapS": 10497,
      "wrapT": 10497
    }
  ],
  "scene": 0,
  "scenes": [
    {
      "name": "Sketchfab_Scene",
      "nodes": [
        0
      ]
    }
  ],
  "textures": [
    {
      "sampler": 0,
      "source": 0
    }
  ]
}
